<svg width="2500.000000" height="2500.000000" viewBox="0 0 2500 2500" fill="none" xmlns="http://www.w3.org/2000/svg" xmlns:xlink="http://www.w3.org/1999/xlink">
	<desc>
			Created with Pixso.
	</desc>
	<g id="Logo hyeta">
		<g clip-path="url(#clip21_75)">
			<g id="Oval 2">
				<path d="M5170.04 1444.05C5146.87 1149.18 4919.41 880.558 4556.46 672.572C4143.28 435.604 3590.66 295.31 3013 255.665C2390.12 212.788 1789.17 288.598 1301.63 448.502C775.75 620.829 422.384 875.416 265.018 1156.13C95.0786 1458.81 163.287 1766.82 413.583 2030.13C683.259 2314.12 1139.46 2523.89 1674.17 2640.14C2224.82 2759.98 2814.75 2772.87 3350.81 2697.06C3386.39 2692.03 3404.55 2651.95 3385.33 2621.58L2897.88 1851.06C2887.21 1834.19 2867.54 1825.37 2847.76 1827.99C2692.43 1848.49 2534.28 1840.72 2396.26 1810.64C2237 1775.96 2117.04 1714.87 2048.02 1642.09C1973.54 1563.63 1963.4 1478.16 2007.02 1400.62C2053.99 1317 2158.67 1249.25 2293.45 1205.14C2438.75 1157.53 2606.7 1140.85 2766.27 1151.88C2938.36 1163.74 3086.88 1206.34 3192.68 1267.08C3283.44 1319.15 3337.41 1380.98 3355.67 1444.61C3363.3 1471.17 3385.11 1494 3412.75 1494L5122 1494C5149.61 1494 5172.2 1471.58 5170.04 1444.05Z" fill-rule="evenodd" fill="#333333"/>
				<path d="M5170.04 1444.05C5146.87 1149.18 4919.41 880.558 4556.46 672.572C4143.28 435.604 3590.66 295.31 3013 255.665C2390.12 212.788 1789.17 288.598 1301.63 448.502C775.75 620.829 422.384 875.416 265.018 1156.13C95.0786 1458.81 163.287 1766.82 413.583 2030.13C683.259 2314.12 1139.46 2523.89 1674.17 2640.14C2224.82 2759.98 2814.75 2772.87 3350.81 2697.06C3386.39 2692.03 3404.55 2651.95 3385.33 2621.58L2897.88 1851.06C2887.21 1834.19 2867.54 1825.37 2847.76 1827.99C2692.43 1848.49 2534.28 1840.72 2396.26 1810.64C2237 1775.96 2117.04 1714.87 2048.02 1642.09C1973.54 1563.63 1963.4 1478.16 2007.02 1400.62C2053.99 1317 2158.67 1249.25 2293.45 1205.14C2438.75 1157.53 2606.7 1140.85 2766.27 1151.88C2938.36 1163.74 3086.88 1206.34 3192.68 1267.08C3283.44 1319.15 3337.41 1380.98 3355.67 1444.61C3363.3 1471.17 3385.11 1494 3412.75 1494L5122 1494C5149.61 1494 5172.2 1471.58 5170.04 1444.05Z" fill-rule="evenodd" fill="#3DF076" fill-opacity="0.101266"/>
			</g>
			<g id="К">
				<path d="M1638.67 1679L1726.5 1679C1729.26 1679 1731.5 1681.24 1731.5 1684L1731.5 1829.99C1731.5 1832.75 1733.75 1834.99 1736.51 1834.99L1758.19 1834.94C1759.93 1834.94 1761.55 1834.02 1762.46 1832.53L1849.91 1687.9C1851.13 1685.88 1853.59 1684.99 1855.82 1685.76L1947.77 1717.61C1951.05 1718.74 1952.2 1722.78 1950.03 1725.47L1763.54 1956.29C1762.06 1958.13 1762.06 1960.75 1763.54 1962.58L1949.76 2193.07C1952.01 2195.86 1950.7 2200.03 1947.26 2201.02L1855.67 2227.38C1853.5 2228 1851.19 2227.1 1850.02 2225.18L1762.49 2081.39C1761.57 2079.87 1759.91 2078.96 1758.13 2078.99L1736.4 2079.41C1733.68 2079.46 1731.5 2081.68 1731.5 2084.41L1731.5 2218.65C1731.5 2220.92 1729.97 2222.9 1727.78 2223.49L1709.73 2228.27C1709.31 2228.38 1708.88 2228.44 1708.45 2228.44L1692.45 2228.44L1637 2228.44C1634.24 2228.44 1632 2226.2 1632 2223.44L1632 2199.45C1632 2199.15 1632.03 2198.85 1632.08 2198.56L1656 2066L1667.97 1853.59C1667.99 1853.2 1667.96 1852.81 1667.9 1852.42L1644 1720L1633.87 1685.4C1632.94 1682.2 1635.34 1679 1638.67 1679Z" fill-rule="evenodd" fill="#FDCE22"/>
			</g>
			<g id="О">
				<path d="M1326 1744C1464.07 1744 1576 1632.07 1576 1494C1576 1355.93 1464.07 1244 1326 1244C1187.93 1244 1076 1355.93 1076 1494C1076 1632.07 1187.93 1744 1326 1744ZM1326 1677.5C1394.89 1677.5 1513.51 1527.62 1471.76 1401.78C1471.59 1401.26 1471.5 1400.72 1471.5 1400.18C1470.89 1332.51 1394.76 1401 1326 1401C1257.22 1401 1166.18 1399.97 1165.5 1468.23C1165.5 1468.74 1165.42 1469.25 1165.27 1469.74C1126.51 1594.33 1257.1 1677.5 1326 1677.5Z" fill-rule="evenodd" fill="#FDCE22"/>
			</g>
			<g id="Ф">
				<path d="M843 1323L898 1323C913.861 1323 903.969 1314.76 899.685 1303.37C898.336 1299.78 900.929 1292.29 901.027 1288.46C901.524 1269.17 892.449 1211.94 898 1155.5C904.724 1087.13 934.954 1020 950.434 1020C1042.48 1020 1044.5 1019.23 1044.5 935.182C1044.5 851.135 1042.48 850.5 950.434 850.5C906.227 850.5 882.901 850.646 870.596 860.109C867.886 862.192 863.671 862.137 860.988 860.019C849.111 850.646 826.234 850.5 782.167 850.5C690.119 850.5 686.5 851.135 686.5 935.182C686.5 1019.23 690.119 1020 782.167 1020C797.558 1020 834.203 1087.14 843 1155.5C850.258 1211.9 840.227 1269.08 840.215 1288.42C840.215 1292.24 842.67 1299.75 841.328 1303.33C837.051 1314.74 827.121 1323 843 1323ZM782.167 921C736.143 921 731.5 893.159 731.5 935.182C731.5 977.206 736.143 983 782.167 983C828.19 983 871 963.024 871 921C871 963.024 889.476 959.5 935.5 959.5C981.523 959.5 1029.5 1018.52 1029.5 976.5C1029.5 934.476 1012.52 904.5 966.5 904.5C920.477 904.5 875.039 875.154 871 921C871 878.976 828.19 921 782.167 921Z" fill-rule="evenodd" fill="#FDCE22"/>
			</g>
			<g id="Exclude">
				<path d="M2270.94 1998.84L2244.24 1991.69C2233.57 1988.83 2222.6 1995.16 2219.74 2005.83L2153.81 2253.01L2120.69 2233.01C2109.64 2233.01 2100.69 2241.97 2100.69 2253.01L2100.69 2313.01C2100.69 2324.06 2109.64 2333.01 2120.69 2333.01L2127.02 2353.01L2100.69 2432.65C2097.83 2443.32 2104.16 2454.29 2114.83 2457.15L2148.64 2466.21C2159.31 2469.07 2170.27 2462.74 2173.13 2452.07L2204.51 2333.01L2340.51 2333.01L2368.74 2452.07C2371.6 2462.74 2382.57 2469.07 2393.24 2466.21L2427.05 2457.15C2437.72 2454.29 2444.05 2443.33 2441.19 2432.66L2418.2 2353.01L2430.69 2333.01C2441.73 2333.01 2450.69 2324.06 2450.69 2313.01L2450.69 2253.01C2450.69 2241.97 2441.73 2233.01 2430.69 2233.01L2391.41 2253.01L2322.13 2005.83C2319.27 1995.16 2308.31 1988.83 2297.64 1991.69L2270.94 1998.84ZM2231.46 2253.01L2270.94 2043.51L2313.76 2253.01L2231.46 2253.01Z" fill-rule="evenodd" fill="#FDCE22"/>
			</g>
		</g>
	</g>
	<defs>
		<clipPath id="clip21_75">
			<rect width="2500.000000" height="2500.000000" fill="white"/>
		</clipPath>
	</defs>
</svg>
